<!--?xml version="1.0" encoding="us-ascii" standalone="no"?--><svg xmlns="http://www.w3.org/2000/svg" xmlns:xlink="http://www.w3.org/1999/xlink" contentstyletype="text/css" height="799px" preserveAspectRatio="none" style="width:1133px;height:799px;background:#FFFFFF;" version="1.1" viewBox="0 0 1133 799" width="1133px" zoomAndPan="magnify"><defs></defs><g><line style="stroke:#181818;stroke-width:0.5;stroke-dasharray:5.0,5.0;" x1="24" x2="24" y1="81.2969" y2="718.6875"></line><line style="stroke:#181818;stroke-width:0.5;stroke-dasharray:5.0,5.0;" x1="250" x2="250" y1="81.2969" y2="718.6875"></line><line style="stroke:#181818;stroke-width:0.5;stroke-dasharray:5.0,5.0;" x1="497" x2="497" y1="81.2969" y2="718.6875"></line><line style="stroke:#181818;stroke-width:0.5;stroke-dasharray:5.0,5.0;" x1="772" x2="772" y1="81.2969" y2="718.6875"></line><text fill="#000000" font-family="sans-serif" font-size="14" lengthAdjust="spacing" textLength="32" x="5" y="77.9951">User</text><ellipse cx="24" cy="13.5" fill="#E2E2F0" rx="8" ry="8" style="stroke:#181818;stroke-width:0.5;"></ellipse><path d="M24,21.5 L24,48.5 M11,29.5 L37,29.5 M24,48.5 L11,63.5 M24,48.5 L37,63.5 " fill="none" style="stroke:#181818;stroke-width:0.5;"></path><text fill="#000000" font-family="sans-serif" font-size="14" lengthAdjust="spacing" textLength="32" x="5" y="730.6826">User</text><ellipse cx="24" cy="742.4844" fill="#E2E2F0" rx="8" ry="8" style="stroke:#181818;stroke-width:0.5;"></ellipse><path d="M24,750.4844 L24,777.4844 M11,758.4844 L37,758.4844 M24,777.4844 L11,792.4844 M24,777.4844 L37,792.4844 " fill="none" style="stroke:#181818;stroke-width:0.5;"></path><rect fill="#E2E2F0" height="30.2969" rx="2.5" ry="2.5" style="stroke:#181818;stroke-width:0.5;" width="128" x="186" y="50"></rect><text fill="#000000" font-family="sans-serif" font-size="14" lengthAdjust="spacing" textLength="114" x="193" y="69.9951">Server Database</text><rect fill="#E2E2F0" height="30.2969" rx="2.5" ry="2.5" style="stroke:#181818;stroke-width:0.5;" width="128" x="186" y="717.6875"></rect><text fill="#000000" font-family="sans-serif" font-size="14" lengthAdjust="spacing" textLength="114" x="193" y="737.6826">Server Database</text><rect fill="#E2E2F0" height="30.2969" rx="2.5" ry="2.5" style="stroke:#181818;stroke-width:0.5;" width="126" x="434" y="50"></rect><text fill="#000000" font-family="sans-serif" font-size="14" lengthAdjust="spacing" textLength="112" x="441" y="69.9951">HTML Generator</text><rect fill="#E2E2F0" height="30.2969" rx="2.5" ry="2.5" style="stroke:#181818;stroke-width:0.5;" width="126" x="434" y="717.6875"></rect><text fill="#000000" font-family="sans-serif" font-size="14" lengthAdjust="spacing" textLength="112" x="441" y="737.6826">HTML Generator</text><rect fill="#E2E2F0" height="30.2969" rx="2.5" ry="2.5" style="stroke:#181818;stroke-width:0.5;" width="178" x="683" y="50"></rect><text fill="#000000" font-family="sans-serif" font-size="14" lengthAdjust="spacing" textLength="164" x="690" y="69.9951">Design Editing Interface</text><rect fill="#E2E2F0" height="30.2969" rx="2.5" ry="2.5" style="stroke:#181818;stroke-width:0.5;" width="178" x="683" y="717.6875"></rect><text fill="#000000" font-family="sans-serif" font-size="14" lengthAdjust="spacing" textLength="164" x="690" y="737.6826">Design Editing Interface</text><rect fill="#EEEEEE" height="3" style="stroke:#EEEEEE;stroke-width:1.0;" width="1126" x="0" y="111.8633"></rect><line style="stroke:#000000;stroke-width:1.0;" x1="0" x2="1126" y1="111.8633" y2="111.8633"></line><line style="stroke:#000000;stroke-width:1.0;" x1="0" x2="1126" y1="114.8633" y2="114.8633"></line><rect fill="#EEEEEE" height="23.1328" style="stroke:#000000;stroke-width:2.0;" width="345" x="390.5" y="101.2969"></rect><text fill="#000000" font-family="sans-serif" font-size="13" font-weight="bold" lengthAdjust="spacing" textLength="326" x="396.5" y="117.3638">Generating Invoice using Predefined Design</text><polygon fill="#181818" points="238,151.5625,248,155.5625,238,159.5625,242,155.5625" style="stroke:#181818;stroke-width:1.0;"></polygon><line style="stroke:#181818;stroke-width:1.0;" x1="24" x2="244" y1="155.5625" y2="155.5625"></line><text fill="#000000" font-family="sans-serif" font-size="13" lengthAdjust="spacing" textLength="202" x="31" y="150.4966">Select predefined design option</text><line style="stroke:#181818;stroke-width:1.0;" x1="250" x2="292" y1="184.6953" y2="184.6953"></line><line style="stroke:#181818;stroke-width:1.0;" x1="292" x2="292" y1="184.6953" y2="197.6953"></line><line style="stroke:#181818;stroke-width:1.0;" x1="251" x2="292" y1="197.6953" y2="197.6953"></line><polygon fill="#181818" points="261,193.6953,251,197.6953,261,201.6953,257,197.6953" style="stroke:#181818;stroke-width:1.0;"></polygon><text fill="#000000" font-family="sans-serif" font-size="13" lengthAdjust="spacing" textLength="233" x="257" y="179.6294">Fetch predefined design based on ID</text><line style="stroke:#181818;stroke-width:1.0;" x1="250" x2="292" y1="226.8281" y2="226.8281"></line><line style="stroke:#181818;stroke-width:1.0;" x1="292" x2="292" y1="226.8281" y2="239.8281"></line><line style="stroke:#181818;stroke-width:1.0;" x1="251" x2="292" y1="239.8281" y2="239.8281"></line><polygon fill="#181818" points="261,235.8281,251,239.8281,261,243.8281,257,239.8281" style="stroke:#181818;stroke-width:1.0;"></polygon><text fill="#000000" font-family="sans-serif" font-size="13" lengthAdjust="spacing" textLength="133" x="257" y="221.7622">Retrieve invoice data</text><polygon fill="#181818" points="485,264.9609,495,268.9609,485,272.9609,489,268.9609" style="stroke:#181818;stroke-width:1.0;"></polygon><line style="stroke:#181818;stroke-width:1.0;" x1="250" x2="491" y1="268.9609" y2="268.9609"></line><text fill="#000000" font-family="sans-serif" font-size="13" lengthAdjust="spacing" textLength="210" x="257" y="263.895">Combine design and data (JSON)</text><line style="stroke:#181818;stroke-width:1.0;" x1="497" x2="539" y1="298.0938" y2="298.0938"></line><line style="stroke:#181818;stroke-width:1.0;" x1="539" x2="539" y1="298.0938" y2="311.0938"></line><line style="stroke:#181818;stroke-width:1.0;" x1="498" x2="539" y1="311.0938" y2="311.0938"></line><polygon fill="#181818" points="508,307.0938,498,311.0938,508,315.0938,504,311.0938" style="stroke:#181818;stroke-width:1.0;"></polygon><text fill="#000000" font-family="sans-serif" font-size="13" lengthAdjust="spacing" textLength="261" x="504" y="293.0278">Generate HTML representation of invoice</text><polygon fill="#181818" points="35,336.2266,25,340.2266,35,344.2266,31,340.2266" style="stroke:#181818;stroke-width:1.0;"></polygon><line style="stroke:#181818;stroke-width:1.0;" x1="29" x2="496" y1="340.2266" y2="340.2266"></line><text fill="#000000" font-family="sans-serif" font-size="13" lengthAdjust="spacing" textLength="228" x="41" y="335.1606">View or download generated invoice</text><rect fill="#EEEEEE" height="3" style="stroke:#EEEEEE;stroke-width:1.0;" width="1126" x="0" y="368.793"></rect><line style="stroke:#000000;stroke-width:1.0;" x1="0" x2="1126" y1="368.793" y2="368.793"></line><line style="stroke:#000000;stroke-width:1.0;" x1="0" x2="1126" y1="371.793" y2="371.793"></line><rect fill="#EEEEEE" height="23.1328" style="stroke:#000000;stroke-width:2.0;" width="156" x="485" y="358.2266"></rect><text fill="#000000" font-family="sans-serif" font-size="13" font-weight="bold" lengthAdjust="spacing" textLength="137" x="491" y="374.2935">Editing the Design</text><polygon fill="#181818" points="760,408.4922,770,412.4922,760,416.4922,764,412.4922" style="stroke:#181818;stroke-width:1.0;"></polygon><line style="stroke:#181818;stroke-width:1.0;" x1="24" x2="766" y1="412.4922" y2="412.4922"></line><text fill="#000000" font-family="sans-serif" font-size="13" lengthAdjust="spacing" textLength="166" x="31" y="407.4263">Choose edit design option</text><line style="stroke:#181818;stroke-width:1.0;" x1="772" x2="814" y1="441.625" y2="441.625"></line><line style="stroke:#181818;stroke-width:1.0;" x1="814" x2="814" y1="441.625" y2="454.625"></line><line style="stroke:#181818;stroke-width:1.0;" x1="773" x2="814" y1="454.625" y2="454.625"></line><polygon fill="#181818" points="783,450.625,773,454.625,783,458.625,779,454.625" style="stroke:#181818;stroke-width:1.0;"></polygon><text fill="#000000" font-family="sans-serif" font-size="13" lengthAdjust="spacing" textLength="187" x="779" y="436.5591">Open design editing interface</text><polygon fill="#181818" points="261,479.7578,251,483.7578,261,487.7578,257,483.7578" style="stroke:#181818;stroke-width:1.0;"></polygon><line style="stroke:#181818;stroke-width:1.0;" x1="255" x2="771" y1="483.7578" y2="483.7578"></line><text fill="#000000" font-family="sans-serif" font-size="13" lengthAdjust="spacing" textLength="398" x="267" y="478.6919">Generate template design (default design JSON and template)</text><polygon fill="#181818" points="35,508.8906,25,512.8906,35,516.8906,31,512.8906" style="stroke:#181818;stroke-width:1.0;"></polygon><line style="stroke:#181818;stroke-width:1.0;" x1="29" x2="771" y1="512.8906" y2="512.8906"></line><text fill="#000000" font-family="sans-serif" font-size="13" lengthAdjust="spacing" textLength="257" x="41" y="507.8247">Show template design for customization</text><polygon fill="#181818" points="760,538.0234,770,542.0234,760,546.0234,764,542.0234" style="stroke:#181818;stroke-width:1.0;"></polygon><line style="stroke:#181818;stroke-width:1.0;" x1="24" x2="766" y1="542.0234" y2="542.0234"></line><text fill="#000000" font-family="sans-serif" font-size="13" lengthAdjust="spacing" textLength="300" x="31" y="536.9575">Interact with editing interface to make changes</text><line style="stroke:#181818;stroke-width:1.0;" x1="772" x2="814" y1="571.1563" y2="571.1563"></line><line style="stroke:#181818;stroke-width:1.0;" x1="814" x2="814" y1="571.1563" y2="584.1563"></line><line style="stroke:#181818;stroke-width:1.0;" x1="773" x2="814" y1="584.1563" y2="584.1563"></line><polygon fill="#181818" points="783,580.1563,773,584.1563,783,588.1563,779,584.1563" style="stroke:#181818;stroke-width:1.0;"></polygon><text fill="#000000" font-family="sans-serif" font-size="13" lengthAdjust="spacing" textLength="340" x="779" y="566.0903">Update design data (JSON) reflecting modified design</text><polygon fill="#181818" points="508,609.2891,498,613.2891,508,617.2891,504,613.2891" style="stroke:#181818;stroke-width:1.0;"></polygon><line style="stroke:#181818;stroke-width:1.0;" x1="502" x2="771" y1="613.2891" y2="613.2891"></line><text fill="#000000" font-family="sans-serif" font-size="13" lengthAdjust="spacing" textLength="227" x="514" y="608.2231">Update HTML preview of the invoice</text><polygon fill="#181818" points="760,638.4219,770,642.4219,760,646.4219,764,642.4219" style="stroke:#181818;stroke-width:1.0;"></polygon><line style="stroke:#181818;stroke-width:1.0;" x1="24" x2="766" y1="642.4219" y2="642.4219"></line><text fill="#000000" font-family="sans-serif" font-size="13" lengthAdjust="spacing" textLength="289" x="31" y="637.356">Make further changes and view HTML preview</text><polygon fill="#181818" points="760,667.5547,770,671.5547,760,675.5547,764,671.5547" style="stroke:#181818;stroke-width:1.0;"></polygon><line style="stroke:#181818;stroke-width:1.0;" x1="24" x2="766" y1="671.5547" y2="671.5547"></line><text fill="#000000" font-family="sans-serif" font-size="13" lengthAdjust="spacing" textLength="122" x="31" y="666.4888">Save edited design</text><polygon fill="#181818" points="261,696.6875,251,700.6875,261,704.6875,257,700.6875" style="stroke:#181818;stroke-width:1.0;"></polygon><line style="stroke:#181818;stroke-width:1.0;" x1="255" x2="771" y1="700.6875" y2="700.6875"></line><text fill="#000000" font-family="sans-serif" font-size="13" lengthAdjust="spacing" textLength="233" x="267" y="695.6216">Update design JSON in the database</text><!--SRC=[RPFDRi8m48JlUOeL9pZq1P3eWOP2glwfQNhVnXkoAh4ZsmIfJr_Rs6aelH7vs_7iZC7QAWsL8GreeCfwr9Phxb5Qc9Ma1tUGeyLFD3JpIBw-P7RlJu-m9KaQdL90TjjB92V3UmaRmPRb7WffIJTOHxrDaMMhLP8u0uFYck1e_DUh9a4DIn8GXLQhh8ARMsTb2IKTgBRG_qBY3AdUif9PlaxaFTcw_GVqcmbG4efyGh-HrKm30KSpmeKGptVR9TofxjEf916K8X0mVoXVdXVPRfl0k1T124gJCs18MlJkG3L9FqvKI_XWEe7hHAYJF2WKi8yAOcHzNYbDsz9LBfl26MoLCWJaiB-HR8gHUkb9fcEAYfpw6SdrP0rBNN_mF-BKtCM9nyDuYTy_n970HP9nkvMjEbqfD6xP-cYiwlWxn3BP8hmLT0MVsBRN3i4gwF2Be6vHxibSx5RrOdBBf1tNGkDVZPVgbE26nzUG17npSJxqvbeRGYzD23mLyMlqoRjeZjgTwkGcn136fXgJeHA7SqDNz_l8B_s7N5c6wqNyG_u0]--></g></svg>